<svg xmlns="http://www.w3.org/2000/svg" width="256.05" height="256.05" viewBox="0 0 1500 1500">
  <defs>
    <style>
      .cls-1 {
        fill: #d5f0dd;
      }

      .cls-1, .cls-2 {
        stroke: #000;
        stroke-width: 45.62px;
      }

      .cls-1, .cls-2, .cls-3 {
        fill-rule: evenodd;
      }

      .cls-2 {
        fill: #95d3a8;
      }
    </style>
  </defs>
  <path id="Rectangle_1_copy" data-name="Rectangle 1 copy" class="cls-1" d="M560.563,68.9L1350.8,229.44a151.988,151.988,0,0,1,118.69,179.218L1308.95,1198.89a152,152,0,0,1-179.21,118.7L339.5,1157.05a152,152,0,0,1-118.7-179.219L381.345,187.6A152,152,0,0,1,560.563,68.9Z"/>
  <path class="cls-2" d="M390.4,179.354l790.2,160.713a152,152,0,0,1,118.66,179.244l-160.71,790.2a152,152,0,0,1-179.246,118.66l-790.2-160.71A152.012,152.012,0,0,1,50.438,1088.21l160.712-790.2A152,152,0,0,1,390.4,179.354Z"/>
  <path id="LV" class="cls-3" d="M356.416,1093.49H605.581a11.393,11.393,0,0,0,11.667-11.67v-40.83a11.393,11.393,0,0,0-11.667-11.67H394.749V525.993a11.392,11.392,0,0,0-11.666-11.667h-45a11.392,11.392,0,0,0-11.667,11.667v537.5A29.873,29.873,0,0,0,356.416,1093.49Zm453.333,0h55c6.667,0,14.167-4.17,15.834-10.83l171.668-550c3.33-10-2.5-18.334-12.5-18.334H998.914a17.09,17.09,0,0,0-15.833,10.834L837.248,1006.82,691.416,525.16c-1.667-6.667-9.167-10.834-15.833-10.834H634.75c-10,0-15.833,8.334-12.5,18.334l171.665,550A17.1,17.1,0,0,0,809.749,1093.49Z"/>
</svg>
